# xmcd
#
# Track frame offsets:
#	150
#	9362
#	22504
#	32576
#	42107
#	50760
#	62001
#	73829
#	85408
#	97756
#	106676
#	118541
#	128816
#	137506
#	148007
#	162027
#	171214
#	185196
#	194430
#	208480
#	222429
#	231328
#	241325
#	251248
#
# Disc length: 3560 seconds
#
# Revision: 0
# Processed by: cddbd v1.5.2PL0 Copyright (c) Steve Scherf et al.
# Submitted via: FairStars CD Ripper 1.80
#
DISCID=560de618
DTITLE=Peter Posa - White Rabbit. The Very Best Of Peter Posa
DYEAR=2012
DGENRE=Pop
TTITLE0=The White Rabbit
TTITLE1=Guitar Boogie
TTITLE2=My Adobe Hacienda
TTITLE3=El Cumbancero
TTITLE4=Gizmo
TTITLE5=Scottish Medley
TTITLE6=Quand Le Soleli Dit Bonjour
TTITLE7=Grasshopper
TTITLE8=Vieni Vieni
TTITLE9=Velvet Waters
TTITLE10=Marie
TTITLE11=Nashville Express
TTITLE12=Wheels
TTITLE13=Gonk
TTITLE14=La Golondrina
TTITLE15=Hitch-Hiker
TTITLE16=Caravan
TTITLE17=The Mad Hatter
TTITLE18=Kola
TTITLE19=The Old Rugged Cross
TTITLE20=Mona Lisa
TTITLE21=Mexico
TTITLE22=Dominique
TTITLE23=The Scottish and Irish Medley
EXTD=
EXTT0=
EXTT1=
EXTT2=
EXTT3=
EXTT4=
EXTT5=
EXTT6=
EXTT7=
EXTT8=
EXTT9=
EXTT10=
EXTT11=
EXTT12=
EXTT13=
EXTT14=
EXTT15=
EXTT16=
EXTT17=
EXTT18=
EXTT19=
EXTT20=
EXTT21=
EXTT22=
EXTT23=
PLAYORDER=
